<svg width="25" height="25" viewBox="0 0 25 25" fill="none" xmlns="http://www.w3.org/2000/svg">
<path d="M7.35236 5.86254C7.35209 6.39297 7.14112 6.90158 6.76586 7.27646C6.3906 7.65135 5.88179 7.86181 5.35136 7.86154C4.82092 7.86128 4.31232 7.65031 3.93744 7.27505C3.56255 6.89979 3.35209 6.39097 3.35236 5.86054C3.35262 5.33011 3.56359 4.82151 3.93885 4.44662C4.31411 4.07174 4.82292 3.86128 5.35336 3.86154C5.88379 3.86181 6.39239 4.07278 6.76728 4.44804C7.14216 4.8233 7.35262 5.33211 7.35236 5.86254ZM7.41236 9.34254H3.41236V21.8625H7.41236V9.34254ZM13.7324 9.34254H9.75236V21.8625H13.6924V15.2925C13.6924 11.6325 18.4624 11.2925 18.4624 15.2925V21.8625H22.4124V13.9325C22.4124 7.76254 15.3524 7.99254 13.6924 11.0225L13.7324 9.34254Z" fill="black"/>
</svg>
